%TF.GenerationSoftware,KiCad,Pcbnew,9.0.2*%
%TF.CreationDate,2025-07-08T09:46:19+02:00*%
%TF.ProjectId,Tastatur,54617374-6174-4757-922e-6b696361645f,rev?*%
%TF.SameCoordinates,Original*%
%TF.FileFunction,Soldermask,Top*%
%TF.FilePolarity,Negative*%
%FSLAX46Y46*%
G04 Gerber Fmt 4.6, Leading zero omitted, Abs format (unit mm)*
G04 Created by KiCad (PCBNEW 9.0.2) date 2025-07-08 09:46:19*
%MOMM*%
%LPD*%
G01*
G04 APERTURE LIST*
G04 Aperture macros list*
%AMRoundRect*
0 Rectangle with rounded corners*
0 $1 Rounding radius*
0 $2 $3 $4 $5 $6 $7 $8 $9 X,Y pos of 4 corners*
0 Add a 4 corners polygon primitive as box body*
4,1,4,$2,$3,$4,$5,$6,$7,$8,$9,$2,$3,0*
0 Add four circle primitives for the rounded corners*
1,1,$1+$1,$2,$3*
1,1,$1+$1,$4,$5*
1,1,$1+$1,$6,$7*
1,1,$1+$1,$8,$9*
0 Add four rect primitives between the rounded corners*
20,1,$1+$1,$2,$3,$4,$5,0*
20,1,$1+$1,$4,$5,$6,$7,0*
20,1,$1+$1,$6,$7,$8,$9,0*
20,1,$1+$1,$8,$9,$2,$3,0*%
G04 Aperture macros list end*
%ADD10C,1.700000*%
%ADD11C,4.000000*%
%ADD12C,2.200000*%
%ADD13RoundRect,0.151100X-0.610900X0.604400X-0.610900X-0.604400X0.610900X-0.604400X0.610900X0.604400X0*%
%ADD14C,1.524000*%
%ADD15RoundRect,0.138050X-0.617950X0.552200X-0.617950X-0.552200X0.617950X-0.552200X0.617950X0.552200X0*%
%ADD16RoundRect,0.151100X0.610900X-0.604400X0.610900X0.604400X-0.610900X0.604400X-0.610900X-0.604400X0*%
%ADD17RoundRect,0.151100X0.644900X-0.604400X0.644900X0.604400X-0.644900X0.604400X-0.644900X-0.604400X0*%
%ADD18RoundRect,0.138050X0.623950X-0.552200X0.623950X0.552200X-0.623950X0.552200X-0.623950X-0.552200X0*%
%ADD19RoundRect,0.151100X0.604900X-0.604400X0.604900X0.604400X-0.604900X0.604400X-0.604900X-0.604400X0*%
%ADD20RoundRect,0.147200X0.588800X-0.608300X0.588800X0.608300X-0.588800X0.608300X-0.588800X-0.608300X0*%
%ADD21RoundRect,0.250000X0.550000X-0.550000X0.550000X0.550000X-0.550000X0.550000X-0.550000X-0.550000X0*%
%ADD22C,1.600000*%
%ADD23R,1.700000X1.700000*%
%ADD24O,1.700000X1.700000*%
G04 APERTURE END LIST*
D10*
%TO.C,SW5*%
X92380000Y-62080000D03*
D11*
X97460000Y-62080000D03*
D10*
X102540000Y-62080000D03*
D12*
X100000000Y-57000000D03*
X93650000Y-59540000D03*
%TD*%
D13*
%TO.C,U1*%
X53300000Y-47994500D03*
D14*
X53300000Y-47620000D03*
D13*
X55840000Y-47994500D03*
D14*
X55840000Y-47620000D03*
D13*
X58380000Y-47994500D03*
D14*
X58380000Y-47620000D03*
D15*
X60926000Y-48059750D03*
D14*
X60920000Y-47620000D03*
D13*
X63460000Y-47994500D03*
D14*
X63460000Y-47620000D03*
D13*
X66000000Y-47994500D03*
D14*
X66000000Y-47620000D03*
D13*
X68540000Y-47994500D03*
D14*
X68540000Y-47620000D03*
X68540000Y-32380000D03*
D16*
X68540000Y-32005500D03*
D14*
X66000000Y-32380000D03*
D17*
X65966000Y-32005500D03*
D14*
X63460000Y-32380000D03*
D18*
X63460000Y-31940250D03*
D14*
X60920000Y-32380000D03*
D19*
X60926000Y-32005500D03*
D14*
X58380000Y-32380000D03*
D20*
X58406000Y-32005500D03*
D14*
X55840000Y-32380000D03*
D16*
X55840000Y-32005500D03*
D14*
X53300000Y-32380000D03*
D16*
X53300000Y-32005500D03*
%TD*%
D21*
%TO.C,D11*%
X145210000Y-84680000D03*
D22*
X145210000Y-77060000D03*
%TD*%
D21*
%TO.C,D2*%
X68960000Y-65990000D03*
D22*
X68960000Y-58370000D03*
%TD*%
D10*
%TO.C,SW1*%
X54380000Y-62120000D03*
D11*
X59460000Y-62120000D03*
D10*
X64540000Y-62120000D03*
D12*
X62000000Y-57040000D03*
X55650000Y-59580000D03*
%TD*%
D23*
%TO.C,J1*%
X108385000Y-43695000D03*
D24*
X108385000Y-41155000D03*
X108385000Y-38615000D03*
X108385000Y-36075000D03*
%TD*%
D10*
%TO.C,SW7*%
X92420000Y-81120000D03*
D11*
X97500000Y-81120000D03*
D10*
X102580000Y-81120000D03*
D12*
X100040000Y-76040000D03*
X93690000Y-78580000D03*
%TD*%
D21*
%TO.C,D7*%
X126000000Y-65620000D03*
D22*
X126000000Y-58000000D03*
%TD*%
D21*
%TO.C,D9*%
X126000000Y-84240000D03*
D22*
X126000000Y-76620000D03*
%TD*%
D10*
%TO.C,SW2*%
X73380000Y-62120000D03*
D11*
X78460000Y-62120000D03*
D10*
X83540000Y-62120000D03*
D12*
X81000000Y-57040000D03*
X74650000Y-59580000D03*
%TD*%
D10*
%TO.C,SW9*%
X130420000Y-62120000D03*
D11*
X135500000Y-62120000D03*
D10*
X140580000Y-62120000D03*
D12*
X138040000Y-57040000D03*
X131690000Y-59580000D03*
%TD*%
D10*
%TO.C,SW4*%
X73380000Y-81080000D03*
D11*
X78460000Y-81080000D03*
D10*
X83540000Y-81080000D03*
D12*
X81000000Y-76000000D03*
X74650000Y-78540000D03*
%TD*%
D10*
%TO.C,SW6*%
X111420000Y-62060000D03*
D11*
X116500000Y-62060000D03*
D10*
X121580000Y-62060000D03*
D12*
X119040000Y-56980000D03*
X112690000Y-59520000D03*
%TD*%
D10*
%TO.C,SW3*%
X54380000Y-81080000D03*
D11*
X59460000Y-81080000D03*
D10*
X64540000Y-81080000D03*
D12*
X62000000Y-76000000D03*
X55650000Y-78540000D03*
%TD*%
D10*
%TO.C,SW8*%
X111420000Y-81120000D03*
D11*
X116500000Y-81120000D03*
D10*
X121580000Y-81120000D03*
D12*
X119040000Y-76040000D03*
X112690000Y-78580000D03*
%TD*%
D21*
%TO.C,D8*%
X107000000Y-83740000D03*
D22*
X107000000Y-76120000D03*
%TD*%
D10*
%TO.C,SW10*%
X130380000Y-81120000D03*
D11*
X135460000Y-81120000D03*
D10*
X140540000Y-81120000D03*
D12*
X138000000Y-76040000D03*
X131650000Y-78580000D03*
%TD*%
D21*
%TO.C,D5*%
X88040000Y-84200000D03*
D22*
X88040000Y-76580000D03*
%TD*%
D21*
%TO.C,D10*%
X145000000Y-65620000D03*
D22*
X145000000Y-58000000D03*
%TD*%
D21*
%TO.C,D4*%
X68960000Y-85200000D03*
D22*
X68960000Y-77580000D03*
%TD*%
D21*
%TO.C,D6*%
X107210000Y-65450000D03*
D22*
X107210000Y-57830000D03*
%TD*%
D21*
%TO.C,D3*%
X87960000Y-65870000D03*
D22*
X87960000Y-58250000D03*
%TD*%
M02*
