M48
; DRILL file {KiCad 9.0.2} date 2025-07-08T09:44:21+0200
; FORMAT={-:-/ absolute / metric / decimal}
; #@! TF.CreationDate,2025-07-08T09:44:21+02:00
; #@! TF.GenerationSoftware,Kicad,Pcbnew,9.0.2
; #@! TF.FileFunction,Plated,1,2,PTH
FMAT,2
METRIC
; #@! TA.AperFunction,Plated,PTH,ComponentDrill
T1C0.800
; #@! TA.AperFunction,Plated,PTH,ComponentDrill
T2C0.889
; #@! TA.AperFunction,Plated,PTH,ComponentDrill
T3C1.000
; #@! TA.AperFunction,Plated,PTH,ComponentDrill
T4C1.500
%
G90
G05
T1
X68.96Y-58.37
X68.96Y-65.99
X68.96Y-77.58
X68.96Y-85.2
X87.96Y-58.25
X87.96Y-65.87
X88.04Y-76.58
X88.04Y-84.2
X107.0Y-76.12
X107.0Y-83.74
X107.21Y-57.83
X107.21Y-65.45
X126.0Y-58.0
X126.0Y-65.62
X126.0Y-76.62
X126.0Y-84.24
X145.0Y-58.0
X145.0Y-65.62
X145.21Y-77.06
X145.21Y-84.68
T2
X53.3Y-32.38
X53.3Y-47.62
X55.84Y-32.38
X55.84Y-47.62
X58.38Y-32.38
X58.38Y-47.62
X60.92Y-32.38
X60.92Y-47.62
X63.46Y-32.38
X63.46Y-47.62
X66.0Y-32.38
X66.0Y-47.62
X68.54Y-32.38
X68.54Y-47.62
T3
X108.385Y-36.075
X108.385Y-38.615
X108.385Y-41.155
X108.385Y-43.695
T4
X55.65Y-59.58
X55.65Y-78.54
X62.0Y-57.04
X62.0Y-76.0
X74.65Y-59.58
X74.65Y-78.54
X81.0Y-57.04
X81.0Y-76.0
X93.65Y-59.54
X93.69Y-78.58
X100.0Y-57.0
X100.04Y-76.04
X112.69Y-59.52
X112.69Y-78.58
X119.04Y-56.98
X119.04Y-76.04
X131.65Y-78.58
X131.69Y-59.58
X138.0Y-76.04
X138.04Y-57.04
M30
