M48
; DRILL file {KiCad 9.0.2} date 2025-07-08T09:44:21+0200
; FORMAT={-:-/ absolute / metric / decimal}
; #@! TF.CreationDate,2025-07-08T09:44:21+02:00
; #@! TF.GenerationSoftware,Kicad,Pcbnew,9.0.2
; #@! TF.FileFunction,NonPlated,1,2,NPTH
FMAT,2
METRIC
; #@! TA.AperFunction,NonPlated,NPTH,ComponentDrill
T1C1.700
; #@! TA.AperFunction,NonPlated,NPTH,ComponentDrill
T2C4.000
%
G90
G05
T1
X54.38Y-62.12
X54.38Y-81.08
X64.54Y-62.12
X64.54Y-81.08
X73.38Y-62.12
X73.38Y-81.08
X83.54Y-62.12
X83.54Y-81.08
X92.38Y-62.08
X92.42Y-81.12
X102.54Y-62.08
X102.58Y-81.12
X111.42Y-62.06
X111.42Y-81.12
X121.58Y-62.06
X121.58Y-81.12
X130.38Y-81.12
X130.42Y-62.12
X140.54Y-81.12
X140.58Y-62.12
T2
X59.46Y-62.12
X59.46Y-81.08
X78.46Y-62.12
X78.46Y-81.08
X97.46Y-62.08
X97.5Y-81.12
X116.5Y-62.06
X116.5Y-81.12
X135.46Y-81.12
X135.5Y-62.12
M30
