%TF.GenerationSoftware,KiCad,Pcbnew,9.0.2*%
%TF.CreationDate,2025-07-08T09:46:19+02:00*%
%TF.ProjectId,Tastatur,54617374-6174-4757-922e-6b696361645f,rev?*%
%TF.SameCoordinates,Original*%
%TF.FileFunction,Legend,Top*%
%TF.FilePolarity,Positive*%
%FSLAX46Y46*%
G04 Gerber Fmt 4.6, Leading zero omitted, Abs format (unit mm)*
G04 Created by KiCad (PCBNEW 9.0.2) date 2025-07-08 09:46:19*
%MOMM*%
%LPD*%
G01*
G04 APERTURE LIST*
%ADD10C,0.600000*%
%ADD11C,0.150000*%
%ADD12C,0.120000*%
%ADD13C,0.127000*%
%ADD14C,0.504000*%
%ADD15C,0.040000*%
G04 APERTURE END LIST*
D10*
X77859021Y-34351657D02*
X77859021Y-31351657D01*
X77859021Y-32780228D02*
X79573307Y-32780228D01*
X79573307Y-34351657D02*
X79573307Y-31351657D01*
X82287593Y-32351657D02*
X82287593Y-34351657D01*
X81001878Y-32351657D02*
X81001878Y-33923085D01*
X81001878Y-33923085D02*
X81144735Y-34208800D01*
X81144735Y-34208800D02*
X81430450Y-34351657D01*
X81430450Y-34351657D02*
X81859021Y-34351657D01*
X81859021Y-34351657D02*
X82144735Y-34208800D01*
X82144735Y-34208800D02*
X82287593Y-34065942D01*
X83716164Y-34351657D02*
X83716164Y-32351657D01*
X83716164Y-31351657D02*
X83573307Y-31494514D01*
X83573307Y-31494514D02*
X83716164Y-31637371D01*
X83716164Y-31637371D02*
X83859021Y-31494514D01*
X83859021Y-31494514D02*
X83716164Y-31351657D01*
X83716164Y-31351657D02*
X83716164Y-31637371D01*
X85144735Y-34351657D02*
X85144735Y-32351657D01*
X85144735Y-31351657D02*
X85001878Y-31494514D01*
X85001878Y-31494514D02*
X85144735Y-31637371D01*
X85144735Y-31637371D02*
X85287592Y-31494514D01*
X85287592Y-31494514D02*
X85144735Y-31351657D01*
X85144735Y-31351657D02*
X85144735Y-31637371D01*
X86573306Y-33208800D02*
X88859021Y-33208800D01*
X90287592Y-34351657D02*
X90287592Y-31351657D01*
X90287592Y-31351657D02*
X91430449Y-31351657D01*
X91430449Y-31351657D02*
X91716164Y-31494514D01*
X91716164Y-31494514D02*
X91859021Y-31637371D01*
X91859021Y-31637371D02*
X92001878Y-31923085D01*
X92001878Y-31923085D02*
X92001878Y-32351657D01*
X92001878Y-32351657D02*
X91859021Y-32637371D01*
X91859021Y-32637371D02*
X91716164Y-32780228D01*
X91716164Y-32780228D02*
X91430449Y-32923085D01*
X91430449Y-32923085D02*
X90287592Y-32923085D01*
X94573307Y-34351657D02*
X94573307Y-32780228D01*
X94573307Y-32780228D02*
X94430449Y-32494514D01*
X94430449Y-32494514D02*
X94144735Y-32351657D01*
X94144735Y-32351657D02*
X93573307Y-32351657D01*
X93573307Y-32351657D02*
X93287592Y-32494514D01*
X94573307Y-34208800D02*
X94287592Y-34351657D01*
X94287592Y-34351657D02*
X93573307Y-34351657D01*
X93573307Y-34351657D02*
X93287592Y-34208800D01*
X93287592Y-34208800D02*
X93144735Y-33923085D01*
X93144735Y-33923085D02*
X93144735Y-33637371D01*
X93144735Y-33637371D02*
X93287592Y-33351657D01*
X93287592Y-33351657D02*
X93573307Y-33208800D01*
X93573307Y-33208800D02*
X94287592Y-33208800D01*
X94287592Y-33208800D02*
X94573307Y-33065942D01*
X97287593Y-34351657D02*
X97287593Y-31351657D01*
X97287593Y-34208800D02*
X97001878Y-34351657D01*
X97001878Y-34351657D02*
X96430450Y-34351657D01*
X96430450Y-34351657D02*
X96144735Y-34208800D01*
X96144735Y-34208800D02*
X96001878Y-34065942D01*
X96001878Y-34065942D02*
X95859021Y-33780228D01*
X95859021Y-33780228D02*
X95859021Y-32923085D01*
X95859021Y-32923085D02*
X96001878Y-32637371D01*
X96001878Y-32637371D02*
X96144735Y-32494514D01*
X96144735Y-32494514D02*
X96430450Y-32351657D01*
X96430450Y-32351657D02*
X97001878Y-32351657D01*
X97001878Y-32351657D02*
X97287593Y-32494514D01*
D11*
X96126667Y-54613200D02*
X96269524Y-54660819D01*
X96269524Y-54660819D02*
X96507619Y-54660819D01*
X96507619Y-54660819D02*
X96602857Y-54613200D01*
X96602857Y-54613200D02*
X96650476Y-54565580D01*
X96650476Y-54565580D02*
X96698095Y-54470342D01*
X96698095Y-54470342D02*
X96698095Y-54375104D01*
X96698095Y-54375104D02*
X96650476Y-54279866D01*
X96650476Y-54279866D02*
X96602857Y-54232247D01*
X96602857Y-54232247D02*
X96507619Y-54184628D01*
X96507619Y-54184628D02*
X96317143Y-54137009D01*
X96317143Y-54137009D02*
X96221905Y-54089390D01*
X96221905Y-54089390D02*
X96174286Y-54041771D01*
X96174286Y-54041771D02*
X96126667Y-53946533D01*
X96126667Y-53946533D02*
X96126667Y-53851295D01*
X96126667Y-53851295D02*
X96174286Y-53756057D01*
X96174286Y-53756057D02*
X96221905Y-53708438D01*
X96221905Y-53708438D02*
X96317143Y-53660819D01*
X96317143Y-53660819D02*
X96555238Y-53660819D01*
X96555238Y-53660819D02*
X96698095Y-53708438D01*
X97031429Y-53660819D02*
X97269524Y-54660819D01*
X97269524Y-54660819D02*
X97460000Y-53946533D01*
X97460000Y-53946533D02*
X97650476Y-54660819D01*
X97650476Y-54660819D02*
X97888572Y-53660819D01*
X98745714Y-53660819D02*
X98269524Y-53660819D01*
X98269524Y-53660819D02*
X98221905Y-54137009D01*
X98221905Y-54137009D02*
X98269524Y-54089390D01*
X98269524Y-54089390D02*
X98364762Y-54041771D01*
X98364762Y-54041771D02*
X98602857Y-54041771D01*
X98602857Y-54041771D02*
X98698095Y-54089390D01*
X98698095Y-54089390D02*
X98745714Y-54137009D01*
X98745714Y-54137009D02*
X98793333Y-54232247D01*
X98793333Y-54232247D02*
X98793333Y-54470342D01*
X98793333Y-54470342D02*
X98745714Y-54565580D01*
X98745714Y-54565580D02*
X98698095Y-54613200D01*
X98698095Y-54613200D02*
X98602857Y-54660819D01*
X98602857Y-54660819D02*
X98364762Y-54660819D01*
X98364762Y-54660819D02*
X98269524Y-54613200D01*
X98269524Y-54613200D02*
X98221905Y-54565580D01*
X143864819Y-84941904D02*
X142864819Y-84941904D01*
X143864819Y-84370476D02*
X143293390Y-84799047D01*
X142864819Y-84370476D02*
X143436247Y-84941904D01*
X67614819Y-66251904D02*
X66614819Y-66251904D01*
X67614819Y-65680476D02*
X67043390Y-66109047D01*
X66614819Y-65680476D02*
X67186247Y-66251904D01*
X58126667Y-54653200D02*
X58269524Y-54700819D01*
X58269524Y-54700819D02*
X58507619Y-54700819D01*
X58507619Y-54700819D02*
X58602857Y-54653200D01*
X58602857Y-54653200D02*
X58650476Y-54605580D01*
X58650476Y-54605580D02*
X58698095Y-54510342D01*
X58698095Y-54510342D02*
X58698095Y-54415104D01*
X58698095Y-54415104D02*
X58650476Y-54319866D01*
X58650476Y-54319866D02*
X58602857Y-54272247D01*
X58602857Y-54272247D02*
X58507619Y-54224628D01*
X58507619Y-54224628D02*
X58317143Y-54177009D01*
X58317143Y-54177009D02*
X58221905Y-54129390D01*
X58221905Y-54129390D02*
X58174286Y-54081771D01*
X58174286Y-54081771D02*
X58126667Y-53986533D01*
X58126667Y-53986533D02*
X58126667Y-53891295D01*
X58126667Y-53891295D02*
X58174286Y-53796057D01*
X58174286Y-53796057D02*
X58221905Y-53748438D01*
X58221905Y-53748438D02*
X58317143Y-53700819D01*
X58317143Y-53700819D02*
X58555238Y-53700819D01*
X58555238Y-53700819D02*
X58698095Y-53748438D01*
X59031429Y-53700819D02*
X59269524Y-54700819D01*
X59269524Y-54700819D02*
X59460000Y-53986533D01*
X59460000Y-53986533D02*
X59650476Y-54700819D01*
X59650476Y-54700819D02*
X59888572Y-53700819D01*
X60793333Y-54700819D02*
X60221905Y-54700819D01*
X60507619Y-54700819D02*
X60507619Y-53700819D01*
X60507619Y-53700819D02*
X60412381Y-53843676D01*
X60412381Y-53843676D02*
X60317143Y-53938914D01*
X60317143Y-53938914D02*
X60221905Y-53986533D01*
X142439819Y-40308333D02*
X143154104Y-40308333D01*
X143154104Y-40308333D02*
X143296961Y-40355952D01*
X143296961Y-40355952D02*
X143392200Y-40451190D01*
X143392200Y-40451190D02*
X143439819Y-40594047D01*
X143439819Y-40594047D02*
X143439819Y-40689285D01*
X143439819Y-39308333D02*
X143439819Y-39879761D01*
X143439819Y-39594047D02*
X142439819Y-39594047D01*
X142439819Y-39594047D02*
X142582676Y-39689285D01*
X142582676Y-39689285D02*
X142677914Y-39784523D01*
X142677914Y-39784523D02*
X142725533Y-39879761D01*
X121956428Y-39339819D02*
X122146904Y-39339819D01*
X122146904Y-39339819D02*
X122242142Y-39387438D01*
X122242142Y-39387438D02*
X122337380Y-39482676D01*
X122337380Y-39482676D02*
X122384999Y-39673152D01*
X122384999Y-39673152D02*
X122384999Y-40006485D01*
X122384999Y-40006485D02*
X122337380Y-40196961D01*
X122337380Y-40196961D02*
X122242142Y-40292200D01*
X122242142Y-40292200D02*
X122146904Y-40339819D01*
X122146904Y-40339819D02*
X121956428Y-40339819D01*
X121956428Y-40339819D02*
X121861190Y-40292200D01*
X121861190Y-40292200D02*
X121765952Y-40196961D01*
X121765952Y-40196961D02*
X121718333Y-40006485D01*
X121718333Y-40006485D02*
X121718333Y-39673152D01*
X121718333Y-39673152D02*
X121765952Y-39482676D01*
X121765952Y-39482676D02*
X121861190Y-39387438D01*
X121861190Y-39387438D02*
X121956428Y-39339819D01*
X123289761Y-40339819D02*
X122813571Y-40339819D01*
X122813571Y-40339819D02*
X122813571Y-39339819D01*
X123623095Y-39816009D02*
X123956428Y-39816009D01*
X124099285Y-40339819D02*
X123623095Y-40339819D01*
X123623095Y-40339819D02*
X123623095Y-39339819D01*
X123623095Y-39339819D02*
X124099285Y-39339819D01*
X124527857Y-40339819D02*
X124527857Y-39339819D01*
X124527857Y-39339819D02*
X124765952Y-39339819D01*
X124765952Y-39339819D02*
X124908809Y-39387438D01*
X124908809Y-39387438D02*
X125004047Y-39482676D01*
X125004047Y-39482676D02*
X125051666Y-39577914D01*
X125051666Y-39577914D02*
X125099285Y-39768390D01*
X125099285Y-39768390D02*
X125099285Y-39911247D01*
X125099285Y-39911247D02*
X125051666Y-40101723D01*
X125051666Y-40101723D02*
X125004047Y-40196961D01*
X125004047Y-40196961D02*
X124908809Y-40292200D01*
X124908809Y-40292200D02*
X124765952Y-40339819D01*
X124765952Y-40339819D02*
X124527857Y-40339819D01*
X126289762Y-40339819D02*
X126289762Y-39339819D01*
X126289762Y-39339819D02*
X126670714Y-39339819D01*
X126670714Y-39339819D02*
X126765952Y-39387438D01*
X126765952Y-39387438D02*
X126813571Y-39435057D01*
X126813571Y-39435057D02*
X126861190Y-39530295D01*
X126861190Y-39530295D02*
X126861190Y-39673152D01*
X126861190Y-39673152D02*
X126813571Y-39768390D01*
X126813571Y-39768390D02*
X126765952Y-39816009D01*
X126765952Y-39816009D02*
X126670714Y-39863628D01*
X126670714Y-39863628D02*
X126289762Y-39863628D01*
X127718333Y-40339819D02*
X127718333Y-39816009D01*
X127718333Y-39816009D02*
X127670714Y-39720771D01*
X127670714Y-39720771D02*
X127575476Y-39673152D01*
X127575476Y-39673152D02*
X127385000Y-39673152D01*
X127385000Y-39673152D02*
X127289762Y-39720771D01*
X127718333Y-40292200D02*
X127623095Y-40339819D01*
X127623095Y-40339819D02*
X127385000Y-40339819D01*
X127385000Y-40339819D02*
X127289762Y-40292200D01*
X127289762Y-40292200D02*
X127242143Y-40196961D01*
X127242143Y-40196961D02*
X127242143Y-40101723D01*
X127242143Y-40101723D02*
X127289762Y-40006485D01*
X127289762Y-40006485D02*
X127385000Y-39958866D01*
X127385000Y-39958866D02*
X127623095Y-39958866D01*
X127623095Y-39958866D02*
X127718333Y-39911247D01*
X128194524Y-39673152D02*
X128194524Y-40339819D01*
X128194524Y-39768390D02*
X128242143Y-39720771D01*
X128242143Y-39720771D02*
X128337381Y-39673152D01*
X128337381Y-39673152D02*
X128480238Y-39673152D01*
X128480238Y-39673152D02*
X128575476Y-39720771D01*
X128575476Y-39720771D02*
X128623095Y-39816009D01*
X128623095Y-39816009D02*
X128623095Y-40339819D01*
X129480238Y-40292200D02*
X129385000Y-40339819D01*
X129385000Y-40339819D02*
X129194524Y-40339819D01*
X129194524Y-40339819D02*
X129099286Y-40292200D01*
X129099286Y-40292200D02*
X129051667Y-40196961D01*
X129051667Y-40196961D02*
X129051667Y-39816009D01*
X129051667Y-39816009D02*
X129099286Y-39720771D01*
X129099286Y-39720771D02*
X129194524Y-39673152D01*
X129194524Y-39673152D02*
X129385000Y-39673152D01*
X129385000Y-39673152D02*
X129480238Y-39720771D01*
X129480238Y-39720771D02*
X129527857Y-39816009D01*
X129527857Y-39816009D02*
X129527857Y-39911247D01*
X129527857Y-39911247D02*
X129051667Y-40006485D01*
X130099286Y-40339819D02*
X130004048Y-40292200D01*
X130004048Y-40292200D02*
X129956429Y-40196961D01*
X129956429Y-40196961D02*
X129956429Y-39339819D01*
X96166667Y-73653200D02*
X96309524Y-73700819D01*
X96309524Y-73700819D02*
X96547619Y-73700819D01*
X96547619Y-73700819D02*
X96642857Y-73653200D01*
X96642857Y-73653200D02*
X96690476Y-73605580D01*
X96690476Y-73605580D02*
X96738095Y-73510342D01*
X96738095Y-73510342D02*
X96738095Y-73415104D01*
X96738095Y-73415104D02*
X96690476Y-73319866D01*
X96690476Y-73319866D02*
X96642857Y-73272247D01*
X96642857Y-73272247D02*
X96547619Y-73224628D01*
X96547619Y-73224628D02*
X96357143Y-73177009D01*
X96357143Y-73177009D02*
X96261905Y-73129390D01*
X96261905Y-73129390D02*
X96214286Y-73081771D01*
X96214286Y-73081771D02*
X96166667Y-72986533D01*
X96166667Y-72986533D02*
X96166667Y-72891295D01*
X96166667Y-72891295D02*
X96214286Y-72796057D01*
X96214286Y-72796057D02*
X96261905Y-72748438D01*
X96261905Y-72748438D02*
X96357143Y-72700819D01*
X96357143Y-72700819D02*
X96595238Y-72700819D01*
X96595238Y-72700819D02*
X96738095Y-72748438D01*
X97071429Y-72700819D02*
X97309524Y-73700819D01*
X97309524Y-73700819D02*
X97500000Y-72986533D01*
X97500000Y-72986533D02*
X97690476Y-73700819D01*
X97690476Y-73700819D02*
X97928572Y-72700819D01*
X98214286Y-72700819D02*
X98880952Y-72700819D01*
X98880952Y-72700819D02*
X98452381Y-73700819D01*
X124654819Y-65881904D02*
X123654819Y-65881904D01*
X124654819Y-65310476D02*
X124083390Y-65739047D01*
X123654819Y-65310476D02*
X124226247Y-65881904D01*
X124654819Y-84501904D02*
X123654819Y-84501904D01*
X124654819Y-83930476D02*
X124083390Y-84359047D01*
X123654819Y-83930476D02*
X124226247Y-84501904D01*
X77126667Y-54653200D02*
X77269524Y-54700819D01*
X77269524Y-54700819D02*
X77507619Y-54700819D01*
X77507619Y-54700819D02*
X77602857Y-54653200D01*
X77602857Y-54653200D02*
X77650476Y-54605580D01*
X77650476Y-54605580D02*
X77698095Y-54510342D01*
X77698095Y-54510342D02*
X77698095Y-54415104D01*
X77698095Y-54415104D02*
X77650476Y-54319866D01*
X77650476Y-54319866D02*
X77602857Y-54272247D01*
X77602857Y-54272247D02*
X77507619Y-54224628D01*
X77507619Y-54224628D02*
X77317143Y-54177009D01*
X77317143Y-54177009D02*
X77221905Y-54129390D01*
X77221905Y-54129390D02*
X77174286Y-54081771D01*
X77174286Y-54081771D02*
X77126667Y-53986533D01*
X77126667Y-53986533D02*
X77126667Y-53891295D01*
X77126667Y-53891295D02*
X77174286Y-53796057D01*
X77174286Y-53796057D02*
X77221905Y-53748438D01*
X77221905Y-53748438D02*
X77317143Y-53700819D01*
X77317143Y-53700819D02*
X77555238Y-53700819D01*
X77555238Y-53700819D02*
X77698095Y-53748438D01*
X78031429Y-53700819D02*
X78269524Y-54700819D01*
X78269524Y-54700819D02*
X78460000Y-53986533D01*
X78460000Y-53986533D02*
X78650476Y-54700819D01*
X78650476Y-54700819D02*
X78888572Y-53700819D01*
X79221905Y-53796057D02*
X79269524Y-53748438D01*
X79269524Y-53748438D02*
X79364762Y-53700819D01*
X79364762Y-53700819D02*
X79602857Y-53700819D01*
X79602857Y-53700819D02*
X79698095Y-53748438D01*
X79698095Y-53748438D02*
X79745714Y-53796057D01*
X79745714Y-53796057D02*
X79793333Y-53891295D01*
X79793333Y-53891295D02*
X79793333Y-53986533D01*
X79793333Y-53986533D02*
X79745714Y-54129390D01*
X79745714Y-54129390D02*
X79174286Y-54700819D01*
X79174286Y-54700819D02*
X79793333Y-54700819D01*
X134166667Y-54653200D02*
X134309524Y-54700819D01*
X134309524Y-54700819D02*
X134547619Y-54700819D01*
X134547619Y-54700819D02*
X134642857Y-54653200D01*
X134642857Y-54653200D02*
X134690476Y-54605580D01*
X134690476Y-54605580D02*
X134738095Y-54510342D01*
X134738095Y-54510342D02*
X134738095Y-54415104D01*
X134738095Y-54415104D02*
X134690476Y-54319866D01*
X134690476Y-54319866D02*
X134642857Y-54272247D01*
X134642857Y-54272247D02*
X134547619Y-54224628D01*
X134547619Y-54224628D02*
X134357143Y-54177009D01*
X134357143Y-54177009D02*
X134261905Y-54129390D01*
X134261905Y-54129390D02*
X134214286Y-54081771D01*
X134214286Y-54081771D02*
X134166667Y-53986533D01*
X134166667Y-53986533D02*
X134166667Y-53891295D01*
X134166667Y-53891295D02*
X134214286Y-53796057D01*
X134214286Y-53796057D02*
X134261905Y-53748438D01*
X134261905Y-53748438D02*
X134357143Y-53700819D01*
X134357143Y-53700819D02*
X134595238Y-53700819D01*
X134595238Y-53700819D02*
X134738095Y-53748438D01*
X135071429Y-53700819D02*
X135309524Y-54700819D01*
X135309524Y-54700819D02*
X135500000Y-53986533D01*
X135500000Y-53986533D02*
X135690476Y-54700819D01*
X135690476Y-54700819D02*
X135928572Y-53700819D01*
X136357143Y-54700819D02*
X136547619Y-54700819D01*
X136547619Y-54700819D02*
X136642857Y-54653200D01*
X136642857Y-54653200D02*
X136690476Y-54605580D01*
X136690476Y-54605580D02*
X136785714Y-54462723D01*
X136785714Y-54462723D02*
X136833333Y-54272247D01*
X136833333Y-54272247D02*
X136833333Y-53891295D01*
X136833333Y-53891295D02*
X136785714Y-53796057D01*
X136785714Y-53796057D02*
X136738095Y-53748438D01*
X136738095Y-53748438D02*
X136642857Y-53700819D01*
X136642857Y-53700819D02*
X136452381Y-53700819D01*
X136452381Y-53700819D02*
X136357143Y-53748438D01*
X136357143Y-53748438D02*
X136309524Y-53796057D01*
X136309524Y-53796057D02*
X136261905Y-53891295D01*
X136261905Y-53891295D02*
X136261905Y-54129390D01*
X136261905Y-54129390D02*
X136309524Y-54224628D01*
X136309524Y-54224628D02*
X136357143Y-54272247D01*
X136357143Y-54272247D02*
X136452381Y-54319866D01*
X136452381Y-54319866D02*
X136642857Y-54319866D01*
X136642857Y-54319866D02*
X136738095Y-54272247D01*
X136738095Y-54272247D02*
X136785714Y-54224628D01*
X136785714Y-54224628D02*
X136833333Y-54129390D01*
X77126667Y-73613200D02*
X77269524Y-73660819D01*
X77269524Y-73660819D02*
X77507619Y-73660819D01*
X77507619Y-73660819D02*
X77602857Y-73613200D01*
X77602857Y-73613200D02*
X77650476Y-73565580D01*
X77650476Y-73565580D02*
X77698095Y-73470342D01*
X77698095Y-73470342D02*
X77698095Y-73375104D01*
X77698095Y-73375104D02*
X77650476Y-73279866D01*
X77650476Y-73279866D02*
X77602857Y-73232247D01*
X77602857Y-73232247D02*
X77507619Y-73184628D01*
X77507619Y-73184628D02*
X77317143Y-73137009D01*
X77317143Y-73137009D02*
X77221905Y-73089390D01*
X77221905Y-73089390D02*
X77174286Y-73041771D01*
X77174286Y-73041771D02*
X77126667Y-72946533D01*
X77126667Y-72946533D02*
X77126667Y-72851295D01*
X77126667Y-72851295D02*
X77174286Y-72756057D01*
X77174286Y-72756057D02*
X77221905Y-72708438D01*
X77221905Y-72708438D02*
X77317143Y-72660819D01*
X77317143Y-72660819D02*
X77555238Y-72660819D01*
X77555238Y-72660819D02*
X77698095Y-72708438D01*
X78031429Y-72660819D02*
X78269524Y-73660819D01*
X78269524Y-73660819D02*
X78460000Y-72946533D01*
X78460000Y-72946533D02*
X78650476Y-73660819D01*
X78650476Y-73660819D02*
X78888572Y-72660819D01*
X79698095Y-72994152D02*
X79698095Y-73660819D01*
X79460000Y-72613200D02*
X79221905Y-73327485D01*
X79221905Y-73327485D02*
X79840952Y-73327485D01*
X115166667Y-54593200D02*
X115309524Y-54640819D01*
X115309524Y-54640819D02*
X115547619Y-54640819D01*
X115547619Y-54640819D02*
X115642857Y-54593200D01*
X115642857Y-54593200D02*
X115690476Y-54545580D01*
X115690476Y-54545580D02*
X115738095Y-54450342D01*
X115738095Y-54450342D02*
X115738095Y-54355104D01*
X115738095Y-54355104D02*
X115690476Y-54259866D01*
X115690476Y-54259866D02*
X115642857Y-54212247D01*
X115642857Y-54212247D02*
X115547619Y-54164628D01*
X115547619Y-54164628D02*
X115357143Y-54117009D01*
X115357143Y-54117009D02*
X115261905Y-54069390D01*
X115261905Y-54069390D02*
X115214286Y-54021771D01*
X115214286Y-54021771D02*
X115166667Y-53926533D01*
X115166667Y-53926533D02*
X115166667Y-53831295D01*
X115166667Y-53831295D02*
X115214286Y-53736057D01*
X115214286Y-53736057D02*
X115261905Y-53688438D01*
X115261905Y-53688438D02*
X115357143Y-53640819D01*
X115357143Y-53640819D02*
X115595238Y-53640819D01*
X115595238Y-53640819D02*
X115738095Y-53688438D01*
X116071429Y-53640819D02*
X116309524Y-54640819D01*
X116309524Y-54640819D02*
X116500000Y-53926533D01*
X116500000Y-53926533D02*
X116690476Y-54640819D01*
X116690476Y-54640819D02*
X116928572Y-53640819D01*
X117738095Y-53640819D02*
X117547619Y-53640819D01*
X117547619Y-53640819D02*
X117452381Y-53688438D01*
X117452381Y-53688438D02*
X117404762Y-53736057D01*
X117404762Y-53736057D02*
X117309524Y-53878914D01*
X117309524Y-53878914D02*
X117261905Y-54069390D01*
X117261905Y-54069390D02*
X117261905Y-54450342D01*
X117261905Y-54450342D02*
X117309524Y-54545580D01*
X117309524Y-54545580D02*
X117357143Y-54593200D01*
X117357143Y-54593200D02*
X117452381Y-54640819D01*
X117452381Y-54640819D02*
X117642857Y-54640819D01*
X117642857Y-54640819D02*
X117738095Y-54593200D01*
X117738095Y-54593200D02*
X117785714Y-54545580D01*
X117785714Y-54545580D02*
X117833333Y-54450342D01*
X117833333Y-54450342D02*
X117833333Y-54212247D01*
X117833333Y-54212247D02*
X117785714Y-54117009D01*
X117785714Y-54117009D02*
X117738095Y-54069390D01*
X117738095Y-54069390D02*
X117642857Y-54021771D01*
X117642857Y-54021771D02*
X117452381Y-54021771D01*
X117452381Y-54021771D02*
X117357143Y-54069390D01*
X117357143Y-54069390D02*
X117309524Y-54117009D01*
X117309524Y-54117009D02*
X117261905Y-54212247D01*
X58126667Y-73613200D02*
X58269524Y-73660819D01*
X58269524Y-73660819D02*
X58507619Y-73660819D01*
X58507619Y-73660819D02*
X58602857Y-73613200D01*
X58602857Y-73613200D02*
X58650476Y-73565580D01*
X58650476Y-73565580D02*
X58698095Y-73470342D01*
X58698095Y-73470342D02*
X58698095Y-73375104D01*
X58698095Y-73375104D02*
X58650476Y-73279866D01*
X58650476Y-73279866D02*
X58602857Y-73232247D01*
X58602857Y-73232247D02*
X58507619Y-73184628D01*
X58507619Y-73184628D02*
X58317143Y-73137009D01*
X58317143Y-73137009D02*
X58221905Y-73089390D01*
X58221905Y-73089390D02*
X58174286Y-73041771D01*
X58174286Y-73041771D02*
X58126667Y-72946533D01*
X58126667Y-72946533D02*
X58126667Y-72851295D01*
X58126667Y-72851295D02*
X58174286Y-72756057D01*
X58174286Y-72756057D02*
X58221905Y-72708438D01*
X58221905Y-72708438D02*
X58317143Y-72660819D01*
X58317143Y-72660819D02*
X58555238Y-72660819D01*
X58555238Y-72660819D02*
X58698095Y-72708438D01*
X59031429Y-72660819D02*
X59269524Y-73660819D01*
X59269524Y-73660819D02*
X59460000Y-72946533D01*
X59460000Y-72946533D02*
X59650476Y-73660819D01*
X59650476Y-73660819D02*
X59888572Y-72660819D01*
X60174286Y-72660819D02*
X60793333Y-72660819D01*
X60793333Y-72660819D02*
X60460000Y-73041771D01*
X60460000Y-73041771D02*
X60602857Y-73041771D01*
X60602857Y-73041771D02*
X60698095Y-73089390D01*
X60698095Y-73089390D02*
X60745714Y-73137009D01*
X60745714Y-73137009D02*
X60793333Y-73232247D01*
X60793333Y-73232247D02*
X60793333Y-73470342D01*
X60793333Y-73470342D02*
X60745714Y-73565580D01*
X60745714Y-73565580D02*
X60698095Y-73613200D01*
X60698095Y-73613200D02*
X60602857Y-73660819D01*
X60602857Y-73660819D02*
X60317143Y-73660819D01*
X60317143Y-73660819D02*
X60221905Y-73613200D01*
X60221905Y-73613200D02*
X60174286Y-73565580D01*
X115166667Y-73653200D02*
X115309524Y-73700819D01*
X115309524Y-73700819D02*
X115547619Y-73700819D01*
X115547619Y-73700819D02*
X115642857Y-73653200D01*
X115642857Y-73653200D02*
X115690476Y-73605580D01*
X115690476Y-73605580D02*
X115738095Y-73510342D01*
X115738095Y-73510342D02*
X115738095Y-73415104D01*
X115738095Y-73415104D02*
X115690476Y-73319866D01*
X115690476Y-73319866D02*
X115642857Y-73272247D01*
X115642857Y-73272247D02*
X115547619Y-73224628D01*
X115547619Y-73224628D02*
X115357143Y-73177009D01*
X115357143Y-73177009D02*
X115261905Y-73129390D01*
X115261905Y-73129390D02*
X115214286Y-73081771D01*
X115214286Y-73081771D02*
X115166667Y-72986533D01*
X115166667Y-72986533D02*
X115166667Y-72891295D01*
X115166667Y-72891295D02*
X115214286Y-72796057D01*
X115214286Y-72796057D02*
X115261905Y-72748438D01*
X115261905Y-72748438D02*
X115357143Y-72700819D01*
X115357143Y-72700819D02*
X115595238Y-72700819D01*
X115595238Y-72700819D02*
X115738095Y-72748438D01*
X116071429Y-72700819D02*
X116309524Y-73700819D01*
X116309524Y-73700819D02*
X116500000Y-72986533D01*
X116500000Y-72986533D02*
X116690476Y-73700819D01*
X116690476Y-73700819D02*
X116928572Y-72700819D01*
X117452381Y-73129390D02*
X117357143Y-73081771D01*
X117357143Y-73081771D02*
X117309524Y-73034152D01*
X117309524Y-73034152D02*
X117261905Y-72938914D01*
X117261905Y-72938914D02*
X117261905Y-72891295D01*
X117261905Y-72891295D02*
X117309524Y-72796057D01*
X117309524Y-72796057D02*
X117357143Y-72748438D01*
X117357143Y-72748438D02*
X117452381Y-72700819D01*
X117452381Y-72700819D02*
X117642857Y-72700819D01*
X117642857Y-72700819D02*
X117738095Y-72748438D01*
X117738095Y-72748438D02*
X117785714Y-72796057D01*
X117785714Y-72796057D02*
X117833333Y-72891295D01*
X117833333Y-72891295D02*
X117833333Y-72938914D01*
X117833333Y-72938914D02*
X117785714Y-73034152D01*
X117785714Y-73034152D02*
X117738095Y-73081771D01*
X117738095Y-73081771D02*
X117642857Y-73129390D01*
X117642857Y-73129390D02*
X117452381Y-73129390D01*
X117452381Y-73129390D02*
X117357143Y-73177009D01*
X117357143Y-73177009D02*
X117309524Y-73224628D01*
X117309524Y-73224628D02*
X117261905Y-73319866D01*
X117261905Y-73319866D02*
X117261905Y-73510342D01*
X117261905Y-73510342D02*
X117309524Y-73605580D01*
X117309524Y-73605580D02*
X117357143Y-73653200D01*
X117357143Y-73653200D02*
X117452381Y-73700819D01*
X117452381Y-73700819D02*
X117642857Y-73700819D01*
X117642857Y-73700819D02*
X117738095Y-73653200D01*
X117738095Y-73653200D02*
X117785714Y-73605580D01*
X117785714Y-73605580D02*
X117833333Y-73510342D01*
X117833333Y-73510342D02*
X117833333Y-73319866D01*
X117833333Y-73319866D02*
X117785714Y-73224628D01*
X117785714Y-73224628D02*
X117738095Y-73177009D01*
X117738095Y-73177009D02*
X117642857Y-73129390D01*
X105654819Y-84001904D02*
X104654819Y-84001904D01*
X105654819Y-83430476D02*
X105083390Y-83859047D01*
X104654819Y-83430476D02*
X105226247Y-84001904D01*
X133650476Y-73653200D02*
X133793333Y-73700819D01*
X133793333Y-73700819D02*
X134031428Y-73700819D01*
X134031428Y-73700819D02*
X134126666Y-73653200D01*
X134126666Y-73653200D02*
X134174285Y-73605580D01*
X134174285Y-73605580D02*
X134221904Y-73510342D01*
X134221904Y-73510342D02*
X134221904Y-73415104D01*
X134221904Y-73415104D02*
X134174285Y-73319866D01*
X134174285Y-73319866D02*
X134126666Y-73272247D01*
X134126666Y-73272247D02*
X134031428Y-73224628D01*
X134031428Y-73224628D02*
X133840952Y-73177009D01*
X133840952Y-73177009D02*
X133745714Y-73129390D01*
X133745714Y-73129390D02*
X133698095Y-73081771D01*
X133698095Y-73081771D02*
X133650476Y-72986533D01*
X133650476Y-72986533D02*
X133650476Y-72891295D01*
X133650476Y-72891295D02*
X133698095Y-72796057D01*
X133698095Y-72796057D02*
X133745714Y-72748438D01*
X133745714Y-72748438D02*
X133840952Y-72700819D01*
X133840952Y-72700819D02*
X134079047Y-72700819D01*
X134079047Y-72700819D02*
X134221904Y-72748438D01*
X134555238Y-72700819D02*
X134793333Y-73700819D01*
X134793333Y-73700819D02*
X134983809Y-72986533D01*
X134983809Y-72986533D02*
X135174285Y-73700819D01*
X135174285Y-73700819D02*
X135412381Y-72700819D01*
X136317142Y-73700819D02*
X135745714Y-73700819D01*
X136031428Y-73700819D02*
X136031428Y-72700819D01*
X136031428Y-72700819D02*
X135936190Y-72843676D01*
X135936190Y-72843676D02*
X135840952Y-72938914D01*
X135840952Y-72938914D02*
X135745714Y-72986533D01*
X136936190Y-72700819D02*
X137031428Y-72700819D01*
X137031428Y-72700819D02*
X137126666Y-72748438D01*
X137126666Y-72748438D02*
X137174285Y-72796057D01*
X137174285Y-72796057D02*
X137221904Y-72891295D01*
X137221904Y-72891295D02*
X137269523Y-73081771D01*
X137269523Y-73081771D02*
X137269523Y-73319866D01*
X137269523Y-73319866D02*
X137221904Y-73510342D01*
X137221904Y-73510342D02*
X137174285Y-73605580D01*
X137174285Y-73605580D02*
X137126666Y-73653200D01*
X137126666Y-73653200D02*
X137031428Y-73700819D01*
X137031428Y-73700819D02*
X136936190Y-73700819D01*
X136936190Y-73700819D02*
X136840952Y-73653200D01*
X136840952Y-73653200D02*
X136793333Y-73605580D01*
X136793333Y-73605580D02*
X136745714Y-73510342D01*
X136745714Y-73510342D02*
X136698095Y-73319866D01*
X136698095Y-73319866D02*
X136698095Y-73081771D01*
X136698095Y-73081771D02*
X136745714Y-72891295D01*
X136745714Y-72891295D02*
X136793333Y-72796057D01*
X136793333Y-72796057D02*
X136840952Y-72748438D01*
X136840952Y-72748438D02*
X136936190Y-72700819D01*
X86694819Y-84461904D02*
X85694819Y-84461904D01*
X86694819Y-83890476D02*
X86123390Y-84319047D01*
X85694819Y-83890476D02*
X86266247Y-84461904D01*
X143654819Y-65881904D02*
X142654819Y-65881904D01*
X143654819Y-65310476D02*
X143083390Y-65739047D01*
X142654819Y-65310476D02*
X143226247Y-65881904D01*
X67614819Y-85461904D02*
X66614819Y-85461904D01*
X67614819Y-84890476D02*
X67043390Y-85319047D01*
X66614819Y-84890476D02*
X67186247Y-85461904D01*
X105864819Y-65711904D02*
X104864819Y-65711904D01*
X105864819Y-65140476D02*
X105293390Y-65569047D01*
X104864819Y-65140476D02*
X105436247Y-65711904D01*
X86614819Y-66131904D02*
X85614819Y-66131904D01*
X86614819Y-65560476D02*
X86043390Y-65989047D01*
X85614819Y-65560476D02*
X86186247Y-66131904D01*
D12*
%TO.C,SW5*%
X90475000Y-55095000D02*
X104445000Y-55095000D01*
X90475000Y-69065000D02*
X90475000Y-55095000D01*
X104445000Y-55095000D02*
X104445000Y-69065000D01*
X104445000Y-69065000D02*
X90475000Y-69065000D01*
D13*
%TO.C,U1*%
X48969000Y-43991272D02*
X48969000Y-35996000D01*
X49469000Y-35496000D02*
X50379000Y-35496000D01*
X50379000Y-44495000D02*
X49468728Y-44491272D01*
X69429000Y-31110000D02*
X52284000Y-31110000D01*
X69429000Y-48890000D02*
X52284000Y-48890000D01*
X71334000Y-46985000D02*
X71334000Y-33015000D01*
X48969000Y-35996000D02*
G75*
G02*
X49469000Y-35496000I500000J0D01*
G01*
X49468728Y-44491272D02*
G75*
G02*
X48969001Y-43991272I291J500018D01*
G01*
X50379000Y-33015000D02*
G75*
G02*
X52284000Y-31110000I1905000J0D01*
G01*
X52284000Y-48890000D02*
G75*
G02*
X50379000Y-46985000I1J1905001D01*
G01*
X69429000Y-31110000D02*
G75*
G02*
X71334000Y-33015000I0J-1905000D01*
G01*
X71334000Y-46985000D02*
G75*
G02*
X69429000Y-48890000I-1905001J1D01*
G01*
D14*
X50872000Y-48950000D02*
G75*
G02*
X50368000Y-48950000I-252000J0D01*
G01*
X50368000Y-48950000D02*
G75*
G02*
X50872000Y-48950000I252000J0D01*
G01*
X51752000Y-47807000D02*
G75*
G02*
X51248000Y-47807000I-252000J0D01*
G01*
X51248000Y-47807000D02*
G75*
G02*
X51752000Y-47807000I252000J0D01*
G01*
D12*
%TO.C,D11*%
X144090000Y-82150000D02*
X146330000Y-82150000D01*
X144090000Y-82270000D02*
X146330000Y-82270000D01*
X144090000Y-82390000D02*
X146330000Y-82390000D01*
X145210000Y-78100000D02*
X145210000Y-78750000D01*
X145210000Y-83640000D02*
X145210000Y-82990000D01*
X144090000Y-82990000D02*
X146330000Y-82990000D01*
X146330000Y-78750000D01*
X144090000Y-78750000D01*
X144090000Y-82990000D01*
%TO.C,D2*%
X67840000Y-63460000D02*
X70080000Y-63460000D01*
X67840000Y-63580000D02*
X70080000Y-63580000D01*
X67840000Y-63700000D02*
X70080000Y-63700000D01*
X68960000Y-59410000D02*
X68960000Y-60060000D01*
X68960000Y-64950000D02*
X68960000Y-64300000D01*
X67840000Y-64300000D02*
X70080000Y-64300000D01*
X70080000Y-60060000D01*
X67840000Y-60060000D01*
X67840000Y-64300000D01*
%TO.C,SW1*%
X52475000Y-55135000D02*
X66445000Y-55135000D01*
X52475000Y-69105000D02*
X52475000Y-55135000D01*
X66445000Y-55135000D02*
X66445000Y-69105000D01*
X66445000Y-69105000D02*
X52475000Y-69105000D01*
D15*
%TO.C,J1*%
X106885000Y-33885000D02*
X106885000Y-45885000D01*
X106885000Y-45885000D02*
X144885000Y-45885000D01*
X111885000Y-45885000D02*
X111885000Y-33885000D01*
X141385000Y-45885000D02*
X141385000Y-33885000D01*
X144885000Y-33885000D02*
X106885000Y-33885000D01*
X144885000Y-45885000D02*
X144885000Y-33885000D01*
D12*
%TO.C,SW7*%
X90515000Y-74135000D02*
X104485000Y-74135000D01*
X90515000Y-88105000D02*
X90515000Y-74135000D01*
X104485000Y-74135000D02*
X104485000Y-88105000D01*
X104485000Y-88105000D02*
X90515000Y-88105000D01*
%TO.C,D7*%
X124880000Y-63090000D02*
X127120000Y-63090000D01*
X124880000Y-63210000D02*
X127120000Y-63210000D01*
X124880000Y-63330000D02*
X127120000Y-63330000D01*
X126000000Y-59040000D02*
X126000000Y-59690000D01*
X126000000Y-64580000D02*
X126000000Y-63930000D01*
X124880000Y-63930000D02*
X127120000Y-63930000D01*
X127120000Y-59690000D01*
X124880000Y-59690000D01*
X124880000Y-63930000D01*
%TO.C,D9*%
X124880000Y-81710000D02*
X127120000Y-81710000D01*
X124880000Y-81830000D02*
X127120000Y-81830000D01*
X124880000Y-81950000D02*
X127120000Y-81950000D01*
X126000000Y-77660000D02*
X126000000Y-78310000D01*
X126000000Y-83200000D02*
X126000000Y-82550000D01*
X124880000Y-82550000D02*
X127120000Y-82550000D01*
X127120000Y-78310000D01*
X124880000Y-78310000D01*
X124880000Y-82550000D01*
%TO.C,SW2*%
X71475000Y-55135000D02*
X85445000Y-55135000D01*
X71475000Y-69105000D02*
X71475000Y-55135000D01*
X85445000Y-55135000D02*
X85445000Y-69105000D01*
X85445000Y-69105000D02*
X71475000Y-69105000D01*
%TO.C,SW9*%
X128515000Y-55135000D02*
X142485000Y-55135000D01*
X128515000Y-69105000D02*
X128515000Y-55135000D01*
X142485000Y-55135000D02*
X142485000Y-69105000D01*
X142485000Y-69105000D02*
X128515000Y-69105000D01*
%TO.C,SW4*%
X71475000Y-74095000D02*
X85445000Y-74095000D01*
X71475000Y-88065000D02*
X71475000Y-74095000D01*
X85445000Y-74095000D02*
X85445000Y-88065000D01*
X85445000Y-88065000D02*
X71475000Y-88065000D01*
%TO.C,SW6*%
X109515000Y-55075000D02*
X123485000Y-55075000D01*
X109515000Y-69045000D02*
X109515000Y-55075000D01*
X123485000Y-55075000D02*
X123485000Y-69045000D01*
X123485000Y-69045000D02*
X109515000Y-69045000D01*
%TO.C,SW3*%
X52475000Y-74095000D02*
X66445000Y-74095000D01*
X52475000Y-88065000D02*
X52475000Y-74095000D01*
X66445000Y-74095000D02*
X66445000Y-88065000D01*
X66445000Y-88065000D02*
X52475000Y-88065000D01*
%TO.C,SW8*%
X109515000Y-74135000D02*
X123485000Y-74135000D01*
X109515000Y-88105000D02*
X109515000Y-74135000D01*
X123485000Y-74135000D02*
X123485000Y-88105000D01*
X123485000Y-88105000D02*
X109515000Y-88105000D01*
%TO.C,D8*%
X105880000Y-81210000D02*
X108120000Y-81210000D01*
X105880000Y-81330000D02*
X108120000Y-81330000D01*
X105880000Y-81450000D02*
X108120000Y-81450000D01*
X107000000Y-77160000D02*
X107000000Y-77810000D01*
X107000000Y-82700000D02*
X107000000Y-82050000D01*
X105880000Y-82050000D02*
X108120000Y-82050000D01*
X108120000Y-77810000D01*
X105880000Y-77810000D01*
X105880000Y-82050000D01*
%TO.C,SW10*%
X128475000Y-74135000D02*
X142445000Y-74135000D01*
X128475000Y-88105000D02*
X128475000Y-74135000D01*
X142445000Y-74135000D02*
X142445000Y-88105000D01*
X142445000Y-88105000D02*
X128475000Y-88105000D01*
%TO.C,D5*%
X86920000Y-81670000D02*
X89160000Y-81670000D01*
X86920000Y-81790000D02*
X89160000Y-81790000D01*
X86920000Y-81910000D02*
X89160000Y-81910000D01*
X88040000Y-77620000D02*
X88040000Y-78270000D01*
X88040000Y-83160000D02*
X88040000Y-82510000D01*
X86920000Y-82510000D02*
X89160000Y-82510000D01*
X89160000Y-78270000D01*
X86920000Y-78270000D01*
X86920000Y-82510000D01*
%TO.C,D10*%
X143880000Y-63090000D02*
X146120000Y-63090000D01*
X143880000Y-63210000D02*
X146120000Y-63210000D01*
X143880000Y-63330000D02*
X146120000Y-63330000D01*
X145000000Y-59040000D02*
X145000000Y-59690000D01*
X145000000Y-64580000D02*
X145000000Y-63930000D01*
X143880000Y-63930000D02*
X146120000Y-63930000D01*
X146120000Y-59690000D01*
X143880000Y-59690000D01*
X143880000Y-63930000D01*
%TO.C,D4*%
X67840000Y-82670000D02*
X70080000Y-82670000D01*
X67840000Y-82790000D02*
X70080000Y-82790000D01*
X67840000Y-82910000D02*
X70080000Y-82910000D01*
X68960000Y-78620000D02*
X68960000Y-79270000D01*
X68960000Y-84160000D02*
X68960000Y-83510000D01*
X67840000Y-83510000D02*
X70080000Y-83510000D01*
X70080000Y-79270000D01*
X67840000Y-79270000D01*
X67840000Y-83510000D01*
%TO.C,D6*%
X106090000Y-62920000D02*
X108330000Y-62920000D01*
X106090000Y-63040000D02*
X108330000Y-63040000D01*
X106090000Y-63160000D02*
X108330000Y-63160000D01*
X107210000Y-58870000D02*
X107210000Y-59520000D01*
X107210000Y-64410000D02*
X107210000Y-63760000D01*
X106090000Y-63760000D02*
X108330000Y-63760000D01*
X108330000Y-59520000D01*
X106090000Y-59520000D01*
X106090000Y-63760000D01*
%TO.C,D3*%
X86840000Y-63340000D02*
X89080000Y-63340000D01*
X86840000Y-63460000D02*
X89080000Y-63460000D01*
X86840000Y-63580000D02*
X89080000Y-63580000D01*
X87960000Y-59290000D02*
X87960000Y-59940000D01*
X87960000Y-64830000D02*
X87960000Y-64180000D01*
X86840000Y-64180000D02*
X89080000Y-64180000D01*
X89080000Y-59940000D01*
X86840000Y-59940000D01*
X86840000Y-64180000D01*
%TD*%
M02*
