%TF.GenerationSoftware,KiCad,Pcbnew,9.0.2*%
%TF.CreationDate,2025-07-08T09:46:19+02:00*%
%TF.ProjectId,Tastatur,54617374-6174-4757-922e-6b696361645f,rev?*%
%TF.SameCoordinates,Original*%
%TF.FileFunction,Copper,L2,Bot*%
%TF.FilePolarity,Positive*%
%FSLAX46Y46*%
G04 Gerber Fmt 4.6, Leading zero omitted, Abs format (unit mm)*
G04 Created by KiCad (PCBNEW 9.0.2) date 2025-07-08 09:46:19*
%MOMM*%
%LPD*%
G01*
G04 APERTURE LIST*
G04 Aperture macros list*
%AMRoundRect*
0 Rectangle with rounded corners*
0 $1 Rounding radius*
0 $2 $3 $4 $5 $6 $7 $8 $9 X,Y pos of 4 corners*
0 Add a 4 corners polygon primitive as box body*
4,1,4,$2,$3,$4,$5,$6,$7,$8,$9,$2,$3,0*
0 Add four circle primitives for the rounded corners*
1,1,$1+$1,$2,$3*
1,1,$1+$1,$4,$5*
1,1,$1+$1,$6,$7*
1,1,$1+$1,$8,$9*
0 Add four rect primitives between the rounded corners*
20,1,$1+$1,$2,$3,$4,$5,0*
20,1,$1+$1,$4,$5,$6,$7,0*
20,1,$1+$1,$6,$7,$8,$9,0*
20,1,$1+$1,$8,$9,$2,$3,0*%
G04 Aperture macros list end*
%TA.AperFunction,ComponentPad*%
%ADD10C,2.200000*%
%TD*%
%TA.AperFunction,ComponentPad*%
%ADD11C,1.524000*%
%TD*%
%TA.AperFunction,ComponentPad*%
%ADD12RoundRect,0.250000X0.550000X-0.550000X0.550000X0.550000X-0.550000X0.550000X-0.550000X-0.550000X0*%
%TD*%
%TA.AperFunction,ComponentPad*%
%ADD13C,1.600000*%
%TD*%
%TA.AperFunction,ComponentPad*%
%ADD14R,1.700000X1.700000*%
%TD*%
%TA.AperFunction,ComponentPad*%
%ADD15O,1.700000X1.700000*%
%TD*%
%TA.AperFunction,Conductor*%
%ADD16C,0.200000*%
%TD*%
G04 APERTURE END LIST*
D10*
%TO.P,SW5,1,1*%
%TO.N,Net-(D6-A)*%
X100000000Y-57000000D03*
%TO.P,SW5,2,2*%
%TO.N,COL3*%
X93650000Y-59540000D03*
%TD*%
D11*
%TO.P,U1,1,GPIO26/ADC0/A0*%
%TO.N,COL1*%
X53300000Y-47620000D03*
%TO.P,U1,2,GPIO27/ADC1/A1*%
%TO.N,COL2*%
X55840000Y-47620000D03*
%TO.P,U1,3,GPIO28/ADC2/A2*%
%TO.N,COL3*%
X58380000Y-47620000D03*
%TO.P,U1,4,GPIO29/ADC3/A3*%
%TO.N,COL4*%
X60920000Y-47620000D03*
%TO.P,U1,5,GPIO6/SDA*%
%TO.N,SDA*%
X63460000Y-47620000D03*
%TO.P,U1,6,GPIO7/SCL*%
%TO.N,SCl*%
X66000000Y-47620000D03*
%TO.P,U1,7,GPIO0/TX*%
%TO.N,COL5*%
X68540000Y-47620000D03*
%TO.P,U1,8,GPIO1/RX*%
%TO.N,unconnected-(U1-GPIO1{slash}RX-Pad8)*%
X68540000Y-32380000D03*
%TO.P,U1,9,GPIO2/SCK*%
%TO.N,ROW2*%
X66000000Y-32380000D03*
%TO.P,U1,10,GPIO4/MISO*%
%TO.N,ROW1*%
X63460000Y-32380000D03*
%TO.P,U1,11,GPIO3/MOSI*%
%TO.N,LED*%
X60920000Y-32380000D03*
%TO.P,U1,12,3V3*%
%TO.N,+3V3*%
X58380000Y-32380000D03*
%TO.P,U1,13,GND*%
%TO.N,GND*%
X55840000Y-32380000D03*
%TO.P,U1,14,VBUS*%
%TO.N,5V*%
X53300000Y-32380000D03*
%TD*%
D12*
%TO.P,D11,1,K*%
%TO.N,ROW2*%
X145210000Y-84680000D03*
D13*
%TO.P,D11,2,A*%
%TO.N,Net-(D11-A)*%
X145210000Y-77060000D03*
%TD*%
D12*
%TO.P,D2,1,K*%
%TO.N,ROW1*%
X68960000Y-65990000D03*
D13*
%TO.P,D2,2,A*%
%TO.N,Net-(D2-A)*%
X68960000Y-58370000D03*
%TD*%
D10*
%TO.P,SW1,1,1*%
%TO.N,Net-(D2-A)*%
X62000000Y-57040000D03*
%TO.P,SW1,2,2*%
%TO.N,COL1*%
X55650000Y-59580000D03*
%TD*%
D14*
%TO.P,J1,1,Pin_1*%
%TO.N,GND*%
X108385000Y-43695000D03*
D15*
%TO.P,J1,2,Pin_2*%
%TO.N,+3V3*%
X108385000Y-41155000D03*
%TO.P,J1,3,Pin_3*%
%TO.N,SCl*%
X108385000Y-38615000D03*
%TO.P,J1,4,Pin_4*%
%TO.N,SDA*%
X108385000Y-36075000D03*
%TD*%
D10*
%TO.P,SW7,1,1*%
%TO.N,Net-(D8-A)*%
X100040000Y-76040000D03*
%TO.P,SW7,2,2*%
%TO.N,COL3*%
X93690000Y-78580000D03*
%TD*%
D12*
%TO.P,D7,1,K*%
%TO.N,ROW1*%
X126000000Y-65620000D03*
D13*
%TO.P,D7,2,A*%
%TO.N,Net-(D7-A)*%
X126000000Y-58000000D03*
%TD*%
D12*
%TO.P,D9,1,K*%
%TO.N,ROW2*%
X126000000Y-84240000D03*
D13*
%TO.P,D9,2,A*%
%TO.N,Net-(D9-A)*%
X126000000Y-76620000D03*
%TD*%
D10*
%TO.P,SW2,1,1*%
%TO.N,Net-(D3-A)*%
X81000000Y-57040000D03*
%TO.P,SW2,2,2*%
%TO.N,COL2*%
X74650000Y-59580000D03*
%TD*%
%TO.P,SW9,1,1*%
%TO.N,Net-(D10-A)*%
X138040000Y-57040000D03*
%TO.P,SW9,2,2*%
%TO.N,COL5*%
X131690000Y-59580000D03*
%TD*%
%TO.P,SW4,1,1*%
%TO.N,Net-(D5-A)*%
X81000000Y-76000000D03*
%TO.P,SW4,2,2*%
%TO.N,COL2*%
X74650000Y-78540000D03*
%TD*%
%TO.P,SW6,1,1*%
%TO.N,Net-(D7-A)*%
X119040000Y-56980000D03*
%TO.P,SW6,2,2*%
%TO.N,COL4*%
X112690000Y-59520000D03*
%TD*%
%TO.P,SW3,1,1*%
%TO.N,Net-(D4-A)*%
X62000000Y-76000000D03*
%TO.P,SW3,2,2*%
%TO.N,COL1*%
X55650000Y-78540000D03*
%TD*%
%TO.P,SW8,1,1*%
%TO.N,Net-(D9-A)*%
X119040000Y-76040000D03*
%TO.P,SW8,2,2*%
%TO.N,COL4*%
X112690000Y-78580000D03*
%TD*%
D12*
%TO.P,D8,1,K*%
%TO.N,ROW2*%
X107000000Y-83740000D03*
D13*
%TO.P,D8,2,A*%
%TO.N,Net-(D8-A)*%
X107000000Y-76120000D03*
%TD*%
D10*
%TO.P,SW10,1,1*%
%TO.N,Net-(D11-A)*%
X138000000Y-76040000D03*
%TO.P,SW10,2,2*%
%TO.N,COL5*%
X131650000Y-78580000D03*
%TD*%
D12*
%TO.P,D5,1,K*%
%TO.N,ROW2*%
X88040000Y-84200000D03*
D13*
%TO.P,D5,2,A*%
%TO.N,Net-(D5-A)*%
X88040000Y-76580000D03*
%TD*%
D12*
%TO.P,D10,1,K*%
%TO.N,ROW1*%
X145000000Y-65620000D03*
D13*
%TO.P,D10,2,A*%
%TO.N,Net-(D10-A)*%
X145000000Y-58000000D03*
%TD*%
D12*
%TO.P,D4,1,K*%
%TO.N,ROW2*%
X68960000Y-85200000D03*
D13*
%TO.P,D4,2,A*%
%TO.N,Net-(D4-A)*%
X68960000Y-77580000D03*
%TD*%
D12*
%TO.P,D6,1,K*%
%TO.N,ROW1*%
X107210000Y-65450000D03*
D13*
%TO.P,D6,2,A*%
%TO.N,Net-(D6-A)*%
X107210000Y-57830000D03*
%TD*%
D12*
%TO.P,D3,1,K*%
%TO.N,ROW1*%
X87960000Y-65870000D03*
D13*
%TO.P,D3,2,A*%
%TO.N,Net-(D3-A)*%
X87960000Y-58250000D03*
%TD*%
D16*
%TO.N,ROW1*%
X146101000Y-31101000D02*
X145000000Y-30000000D01*
X145000000Y-30000000D02*
X65840000Y-30000000D01*
X145000000Y-65620000D02*
X146101000Y-64519000D01*
X65840000Y-30000000D02*
X63460000Y-32380000D01*
X146101000Y-64519000D02*
X146101000Y-31101000D01*
%TO.N,SDA*%
X108385000Y-36075000D02*
X65075000Y-36075000D01*
X63460000Y-37540000D02*
X63460000Y-47620000D01*
X65000000Y-36000000D02*
X63460000Y-37540000D01*
X65075000Y-36075000D02*
X65000000Y-36000000D01*
%TO.N,SCl*%
X66000000Y-41000000D02*
X66000000Y-47620000D01*
X108385000Y-38615000D02*
X68385000Y-38615000D01*
X68385000Y-38615000D02*
X66000000Y-41000000D01*
%TO.N,COL2*%
X74650000Y-59580000D02*
X68070000Y-53000000D01*
X56000000Y-53000000D02*
X55840000Y-52840000D01*
X68070000Y-53000000D02*
X56000000Y-53000000D01*
X74650000Y-59580000D02*
X74650000Y-78540000D01*
X55840000Y-52840000D02*
X55840000Y-47620000D01*
%TO.N,COL3*%
X93650000Y-59540000D02*
X93650000Y-78540000D01*
X93650000Y-59540000D02*
X86110000Y-52000000D01*
X58380000Y-50620000D02*
X58380000Y-47620000D01*
X93650000Y-78540000D02*
X93690000Y-78580000D01*
X86110000Y-52000000D02*
X58000000Y-52000000D01*
X58000000Y-51000000D02*
X58380000Y-50620000D01*
X58000000Y-52000000D02*
X58000000Y-51000000D01*
%TO.N,COL4*%
X104170000Y-51000000D02*
X61000000Y-51000000D01*
X112690000Y-59520000D02*
X112690000Y-78580000D01*
X61000000Y-51000000D02*
X61000000Y-50000000D01*
X112690000Y-59520000D02*
X104170000Y-51000000D01*
X60920000Y-49920000D02*
X60920000Y-47620000D01*
X61000000Y-50000000D02*
X60920000Y-49920000D01*
%TO.N,COL5*%
X122110000Y-50000000D02*
X69000000Y-50000000D01*
X69000000Y-48080000D02*
X68540000Y-47620000D01*
X131690000Y-59580000D02*
X122110000Y-50000000D01*
X131690000Y-59580000D02*
X131690000Y-78540000D01*
X131690000Y-78540000D02*
X131650000Y-78580000D01*
X69000000Y-50000000D02*
X69000000Y-48080000D01*
%TD*%
M02*
